Coordinates
version=1
nRows=7
nColumns=41
inDegrees=no

If the header above contains a line with 'inDegrees', this indicates whether rotational values are in degrees (yes) or radians (no).

endheader
time	pelvis_tx	pelvis_tz	pelvis_ty	pelvis_tilt	pelvis_list	pelvis_rotation	hip_flexion_r	hip_adduction_r	hip_rotation_r	knee_angle_r	ankle_angle_r	subtalar_angle_r	mtp_angle_r	hip_flexion_l	hip_adduction_l	hip_rotation_l	knee_angle_l	ankle_angle_l	subtalar_angle_l	mtp_angle_l	lumbar_extension	lumbar_bending	lumbar_rotation	neck_extension	neck_bending	neck_rotation	arm_flex_r	arm_add_r	arm_rot_r	elbow_flex_r	pro_sup_r	wrist_flex_r	wrist_dev_r	arm_flex_l	arm_add_l	arm_rot_l	elbow_flex_l	pro_sup_l	wrist_flex_l	wrist_dev_l
0.0	-0.2305908203125	3.69140625	2.044921875	0.06810750154388856	-0.14128187190975283	3.0204371419703135	-0.2095625467486959	-0.09426963440350519	-0.20172924152230326	0.025880081964834822	0.09045215549091139	0.20570636884130397	0.4723556746358064	0.4799111274077391	0.13600275365483847	-0.12843668621953092	0.2103878694813206	-0.05902727695664514	-0.28797025666032733	0.5338900644007859	0.02449957635745903	-0.14798820100336182	0.1499340585357191	0.03865070546080773	0.06006680975514664	-0.045940175066884505	0.13646411759712473	-0.022320754121824105	-0.3255923620116707	0.601118357254867	1.689425867242003	-0.5082621246901907	-0.3423191256523149	-0.25630357850659513	-0.17059417837524926	-0.2595249544977193	0.4199106641634641	1.7749777685187045	-0.2553779451250757	-0.00903276177924199
0.04167	-0.2218017578125	3.673828125	2.02734375	0.08738427785186631	-0.1338092762647629	3.005361674195904	-0.23657686190548977	-0.09327898313271403	-0.1616398730478203	0.031050753038678325	0.10682943399328067	0.25243210844397745	0.5257884263945295	0.49700579297739755	0.13001856378230225	-0.03176358720462478	0.03558070514061762	-0.08666255185695101	-0.40948459808322096	0.3375258895709013	0.04461513404318285	-0.14666031249920894	0.17772935086545114	0.03481137557498615	0.07663415919664432	-0.04775095509948563	0.20615868910070423	-0.018204140785604506	-0.22771334286336897	0.6903337383098038	1.670509341704488	-0.4963655183434296	-0.3746652896884005	-0.33307317196096264	-0.14227973463645582	-0.3670002927864875	0.3937599009520458	1.825806731774604	-0.25922596691023336	0.01819476679361584
0.08333	-0.220703125	3.6953125	2.02734375	0.09676655863350558	-0.12965961552756822	2.96477423175042	-0.2579913928813693	-0.12036883771580267	-0.1480367548599535	0.05505003783062712	0.06506073775709952	0.2966702212077264	0.544094938753427	0.520593953204161	0.11970215441225773	-0.010673801573356796	-0.00737001405008475	-0.14203442089632826	-0.5049137920029338	0.15043202717637166	0.049698734205729456	-0.11101616635270495	0.19604194991598348	0.047565915054461505	0.05659021995231523	-0.035753840086990084	0.27119348067510585	-0.05335966477709353	-0.14331443647718667	0.7440312307415966	1.6196547323998662	-0.49012420472570184	-0.387671471875905	-0.4826101865209408	-0.2305067155602749	-0.5100657184701411	0.4030982852476863	1.8908394246016305	-0.30985220043367523	0.05276964341233946
0.125	-0.2225341796875	3.69921875	2.0234375	0.09575067012770178	-0.13881672674662426	2.970031653272625	-0.2884909856838176	-0.14135627141336332	-0.13480300794897224	0.10837127902834975	0.015507003216865827	0.2940806821635997	0.5271500333768488	0.531237308625139	0.13564476557640448	-0.04962112059197047	0.0708321858105303	-0.17972367969662045	-0.4580115200503213	0.23169678215403958	0.053668150851063134	-0.12502220596143848	0.217996018146259	0.054982659851130045	0.05498833956229808	-0.04632988025447373	0.27146740776226264	-0.09728895529470805	-0.17794077006107178	0.7833034222182313	1.5813773914068634	-0.5168640156472614	-0.3853551643575749	-0.5348240177472553	-0.22182156442715428	-0.5339448669830404	0.4062299798693675	1.9118898128973945	-0.2410802187698471	0.05646230205959524
0.16667	-0.23291015625	3.693359375	2.01953125	0.09771618847452102	-0.14458901782346523	2.9558038434592566	-0.27752713533852913	-0.18071500240874067	-0.12232278874172829	0.22874067464466252	-0.08466984328403852	0.2372781099476544	0.5169159788337785	0.515190568501782	0.1423047118232224	-0.04074101128068298	0.14646593908311023	-0.22731588370264041	-0.4449946584157301	0.25335023114701893	0.0808710279161281	-0.12913578631105088	0.2403811883657749	0.041643397511964886	0.05013391432038627	-0.05388960811242059	0.24660046689110937	-0.06794237394753111	-0.16097933964616729	0.8164286237975862	1.5751560781289498	-0.5171088737073092	-0.3843996484954256	-0.5699039589518834	-0.2093649576157507	-0.5521779295256944	0.3922117939972761	1.9005774523105794	-0.19938526035815582	0.05904265053398622
0.20833	-0.2432861328125	3.705078125	2.029296875	0.09722346931931547	-0.15309930587840292	2.9547195550351097	-0.21986338113562098	-0.21182200200536955	-0.09574260789023475	0.39358795718059814	-0.25877884667662987	0.12475548426227052	0.4855733178267191	0.4848524253663092	0.15419057503512237	-0.055561520771726866	0.20842945880098185	-0.24901307177251175	-0.4418182932584609	0.30253150718132843	0.10088691627294422	-0.13573659031888863	0.24960117571032722	0.026749537445672544	0.0470175368012672	-0.06171273288161994	0.20615868910070423	-0.05128148635286611	-0.17263874896459055	0.7912973658037976	1.5804890345800373	-0.5215076895896227	-0.3778713564003119	-0.5768149827708963	-0.2093649576157507	-0.5511693872432532	0.3662599140914168	1.8773879047899826	-0.20909802409025388	0.04784092831293272
0.25	-0.253662109375	3.71484375	2.04296875	0.08602236923540674	-0.16846280506160705	2.9594069483512415	-0.12958887659414664	-0.23104727670979774	-0.06670524434502409	0.5825248936485994	-0.4723556746358064	-0.02101896661595038	0.3969468221206732	0.43211841936851947	0.18833511690728225	-0.08917214186060099	0.26253758353872314	-0.207009295552964	-0.3969468221206732	0.4390315070500583	0.10227247667579686	-0.15099456718217213	0.245330648170522	0.027310170164711933	0.05677325572262317	-0.06792519118429481	0.1577850684629496	-0.045054464429670094	-0.2168147289886268	0.7137849671911782	1.6103883689782867	-0.5477905534994945	-0.36067665855617725	-0.5505233191017765	-0.23105009925185094	-0.5234033437381934	0.340512396130491	1.8370305577410475	-0.2268574608526316	0.026281026924603497
